<?xml version="1.0" encoding="UTF-8"?><svg id="a" xmlns="http://www.w3.org/2000/svg" xmlns:xlink="http://www.w3.org/1999/xlink" viewBox="0 0 450 802.43"><defs><style>.d{fill:#654c47;}.e{fill:#7c645c;}.f{clip-path:url(#b);}.g{clip-path:url(#c);}.h,.i{fill:none;}.j{fill:#856c63;}.i{stroke:#231815;stroke-miterlimit:10;stroke-width:10px;}.k{fill:#a1897d;}</style><clipPath id="b"><path class="h" d="M383.2,321.24c-.68,40.61-71.24,73.44-158.2,73.44s-157.66-32.89-158.2-73.56c-8.38,26.66-29.78,102.6-29.78,182.55,0,99.39,33.08,192.61,33.08,192.61,10.2,36.38,75.66,64.44,154.9,64.44s144.69-28.06,154.9-64.44c0,0,33.08-94.59,33.08-192.61,0-78.86-21.41-155.48-29.78-182.43Z"/></clipPath><clipPath id="c"><path class="h" d="M412.98,503.67c0-98.02-33.08-192.61-33.08-192.61h0c-10.2-36.38-75.66-64.44-154.9-64.44s-144.69,28.06-154.9,64.44h0s-33.08,93.22-33.08,192.61,33.08,192.61,33.08,192.61h0c10.2,36.38,75.66,64.44,154.9,64.44s144.69-28.06,154.9-64.44h0s33.08-94.59,33.08-192.61Z"/></clipPath></defs><path class="i" d="M412.98,503.67c0-98.02-33.08-192.61-33.08-192.61h0c-10.2-36.38-75.66-64.44-154.9-64.44s-144.69,28.06-154.9,64.44h0s-33.08,93.22-33.08,192.61,33.08,192.61,33.08,192.61h0c10.2,36.38,75.66,64.44,154.9,64.44s144.69-28.06,154.9-64.44h0s33.08-94.59,33.08-192.61Z"/><g><path class="j" d="M412.98,503.67c0-98.02-33.08-192.61-33.08-192.61h0c-10.2-36.38-75.66-64.44-154.9-64.44s-144.69,28.06-154.9,64.44h0s-33.08,93.22-33.08,192.61,33.08,192.61,33.08,192.61h0c10.2,36.38,75.66,64.44,154.9,64.44s144.69-28.06,154.9-64.44h0s33.08-94.59,33.08-192.61Z"/><path class="d" d="M225,278.12c68.12,0,124.36,22.22,132.81,50.97,.72-2.46,1.1-4.97,1.1-7.52,0-32.31-59.95-58.49-133.91-58.49s-133.91,26.19-133.91,58.49c0,2.55,.37,5.06,1.1,7.52,8.45-28.75,64.69-50.97,132.81-50.97Z"/><g class="f"><g><path class="e" d="M393.88,294.88c-11.13-39.43-82.49-69.85-168.88-69.85,69.92,0,127.68,30.42,136.69,69.85,0,0,29.19,102.54,29.19,208.79s-29.19,208.79-29.19,208.79c-9.01,39.43-66.77,69.85-136.69,69.85,86.39,0,157.76-30.42,168.88-69.85,0,0,36.07-102.54,36.07-208.79s-36.07-208.79-36.07-208.79Z"/><path class="e" d="M324.41,712.46s21.23-102.54,21.23-208.79-21.23-208.79-21.23-208.79c-6.55-39.43-48.56-69.85-99.41-69.85h0c-86.39,0-157.76,30.42-168.88,69.85,0,0-36.07,101.05-36.07,208.79s36.07,208.79,36.07,208.79c11.13,39.43,82.49,69.85,168.88,69.85h0c50.85,0,92.86-30.42,99.41-69.85Zm-236.1,0s-29.19-101.05-29.19-208.79,29.19-208.79,29.19-208.79c9-39.43,66.77-69.85,136.69-69.85-50.85,0-92.86,30.42-99.41,69.85,0,0-21.23,101.05-21.23,208.79s21.23,208.79,21.23,208.79c6.55,39.43,48.56,69.85,99.41,69.85-69.92,0-127.68-30.42-136.69-69.85Zm136.69,69.85c-22.68,0-41.42-30.42-44.34-69.85,0,0-9.47-101.05-9.47-208.79s9.47-208.79,9.47-208.79c2.92-39.43,21.66-69.85,44.34-69.85h0c22.68,0,41.42,30.42,44.34,69.85,0,0,9.47,102.54,9.47,208.79s-9.47,208.79-9.47,208.79c-2.92,39.43-21.66,69.85-44.34,69.85h0Z"/></g></g><g class="g"><g><path class="k" d="M225,706.04c-88.62,0-161.83-31.36-173.36-72.02-.96,3.52-1.45,7.11-1.45,10.76,0,45.94,78.27,83.19,174.81,83.19s174.81-37.24,174.81-83.19c0-3.65-.5-7.24-1.45-10.76-11.53,40.67-84.74,72.02-173.36,72.02Z"/><path class="k" d="M225,739.12c-88.62,0-161.83-31.36-173.36-72.02-.96,3.52-1.45,7.11-1.45,10.76,0,45.94,78.27,83.19,174.81,83.19s174.81-37.24,174.81-83.19c0-3.65-.5-7.24-1.45-10.76-11.53,40.67-84.74,72.02-173.36,72.02Z"/><path class="k" d="M225,645.18c-93.29,0-170.52-32.73-183.76-75.37-.68,3.07-1.04,6.2-1.04,9.36,0,48.57,82.74,87.94,184.8,87.94s184.8-39.37,184.8-87.94c0-3.16-.36-6.28-1.04-9.36-13.24,42.65-90.46,75.37-183.76,75.37Z"/><path class="k" d="M225,537.29c106.7,0,193.19-41.16,193.19-91.94,0-12.22-5.02-23.89-14.13-34.55,2.45,5.68,3.73,11.55,3.73,17.57,0,48.04-81.84,86.99-182.8,86.99s-182.8-38.95-182.8-86.99c0-6.02,1.29-11.9,3.73-17.57-9.1,10.67-14.12,22.33-14.12,34.55,0,50.77,86.5,91.94,193.19,91.94Z"/><path class="k" d="M225,448.46c96.74,0,175.17-37.32,175.17-83.36,0-6.85-1.75-13.5-5.02-19.87,0,.11,0,.22,0,.33,0,44.72-76.18,80.97-170.16,80.97s-170.16-36.25-170.16-80.97c0-.11,0-.22,0-.33-3.27,6.37-5.02,13.02-5.02,19.87,0,46.04,78.43,83.36,175.17,83.36Z"/><path class="k" d="M225,414.9c93.98,0,170.16-36.25,170.16-80.97,0-13.67-7.13-26.55-19.71-37.85,5.4,7.6,8.32,15.74,8.32,24.21,0,41.73-71.08,75.56-158.77,75.56s-158.77-33.83-158.77-75.56c0-8.47,2.93-16.61,8.32-24.21-12.57,11.3-19.71,24.18-19.71,37.85,0,44.72,76.18,80.97,170.16,80.97Z"/></g></g></g></svg>