<?xml version="1.0" encoding="UTF-8"?><svg id="a" xmlns="http://www.w3.org/2000/svg" xmlns:xlink="http://www.w3.org/1999/xlink" viewBox="0 0 450 802.43"><defs><style>.d{fill:#69747b;}.e{fill:#757f87;}.f{fill:#636c74;}.g{fill:#8c99a2;}.h{clip-path:url(#b);}.i{clip-path:url(#c);}.j{fill:#60686f;}.k{fill:none;}.l{fill:#373a43;}.m{fill:#727b81;}.n{fill:#5e6974;}.o{fill:#231815;stroke:#231815;stroke-miterlimit:10;stroke-width:10px;}</style><clipPath id="b"><path class="k" d="M228.96,544.81c-84.57,0-153.13,29.04-153.13,64.87v80.05c0,35.82,68.56,64.87,153.13,64.87s153.13-29.04,153.13-64.87v-80.05c0-35.82-68.56-64.87-153.13-64.87Z"/></clipPath><clipPath id="c"><path class="k" d="M228.96,312.9c-81.6,0-147.75,28.02-147.75,62.59v228.66c0,34.57,66.15,62.59,147.75,62.59s147.75-28.02,147.75-62.59v-228.66c0-34.57-66.15-62.59-147.75-62.59Z"/></clipPath></defs><path class="o" d="M286.54,240.95c-3.22-4.8-8.66-7.8-14.61-7.8h-86.71c-5.95,0-11.4,3-14.61,7.8-64.52,11.56-110.56,41.88-110.56,77.45v18.55c0,8.49,2.62,16.68,7.49,24.38v19.94c0,9.81,4.89,19.14,13.67,27.57v47.74c-.38-.07-.77-.12-1.17-.12h-22.13c-2.76,0-5,2.24-5,5v3.15c0,15.72,10.71,30.04,28.3,40.88v87.09c-3.5,5.44-5.37,11.16-5.37,17.07v12.44c-.25,1.52-.39,3.05-.39,4.6v80.05c0,35.82,68.56,64.87,153.13,64.87s153.13-29.04,153.13-64.87v-12.44c.25-1.52,.39-3.05,.39-4.6v-80.05c0-5.91-1.88-11.63-5.37-17.07v-183.74c8.78-8.43,13.67-17.76,13.67-27.57v-21.22c4.37-7.33,6.72-15.08,6.72-23.11v-18.55c0-35.57-46.04-65.89-110.56-77.45ZM73.59,471.6h7.61v12c-3.64-3.74-6.24-7.77-7.61-12Z"/><g><path class="j" d="M52.9,461.47v3.15h14.43v6.97h19.32c2.07,0,3.44-2.14,2.57-4.02l-3.44-7.43c-1.04-2.24-3.28-3.67-5.75-3.67h-22.13c-2.76,0-5,2.24-5,5Z"/><g><path class="f" d="M228.57,561.85c-84.57,0-153.13,29.04-153.13,64.87v80.05c0,35.82,68.56,64.87,153.13,64.87s153.13-29.04,153.13-64.87v-80.05c0-35.82-68.56-64.87-153.13-64.87Z"/><path class="d" d="M228.96,544.81c-84.57,0-153.13,29.04-153.13,64.87v80.05c0,35.82,68.56,64.87,153.13,64.87s153.13-29.04,153.13-64.87v-80.05c0-35.82-68.56-64.87-153.13-64.87Z"/><g class="h"><g><path class="f" d="M92.85,544.81h-11.64v325.09c0,2.95,.03,5.88,.08,8.81h11.63c-.05-2.93-.07-5.86-.07-8.81v-325.09Z"/><path class="f" d="M376.71,544.81h-11.64v325.09c0,2.95-.03,5.88-.07,8.81h11.63c.05-2.93,.08-5.86,.08-8.81v-325.09Z"/><path class="f" d="M126.34,544.81h-20.74v325.09c0,2.95,.02,5.88,.07,8.81h20.72c-.03-2.93-.05-5.86-.05-8.81v-325.09Z"/><path class="f" d="M352.31,544.81h-20.74v325.09c0,2.95-.02,5.88-.05,8.81h20.72c.04-2.93,.07-5.86,.07-8.81v-325.09Z"/><path class="f" d="M177.91,544.81h-27.29v325.09c0,2.95,.01,5.88,.04,8.81h27.27c-.02-2.93-.03-5.86-.03-8.81v-325.09Z"/><path class="f" d="M307.28,544.81h-27.29v325.09c0,2.95,0,5.88-.03,8.81h27.27c.03-2.93,.04-5.86,.04-8.81v-325.09Z"/><path class="f" d="M253.41,544.81h-48.91v325.09c0,2.95,0,5.88,.01,8.81h48.89c0-2.93,.01-5.86,.01-8.81v-325.09Z"/></g></g><path class="f" d="M228.96,544.81c-84.57,0-153.13,29.04-153.13,64.87h0c0,35.82,68.56,64.87,153.13,64.87s153.13-29.04,153.13-64.87h0c0-35.82-68.56-64.87-153.13-64.87Z"/><path class="d" d="M228.96,312.9c-81.6,0-147.75,28.02-147.75,62.59v228.66c0,34.57,66.15,62.59,147.75,62.59s147.75-28.02,147.75-62.59v-228.66c0-34.57-66.15-62.59-147.75-62.59Z"/><g class="i"><g><path class="f" d="M98.24,396.42h-11.18v325.09c0,2.95,.03,5.88,.08,8.81h11.17c-.04-2.93-.07-5.86-.07-8.81V396.42Z"/><path class="f" d="M370.85,396.42h-11.18v325.09c0,2.95-.03,5.88-.07,8.81h11.17c.05-2.93,.08-5.86,.08-8.81V396.42Z"/><path class="f" d="M130.41,396.42h-19.91v325.09c0,2.95,.02,5.88,.06,8.81h19.9c-.03-2.93-.05-5.86-.05-8.81V396.42Z"/><path class="f" d="M347.42,396.42h-19.91v325.09c0,2.95-.02,5.88-.05,8.81h19.9c.04-2.93,.06-5.86,.06-8.81V396.42Z"/><path class="f" d="M179.94,396.42h-26.2v325.09c0,2.95,.01,5.88,.04,8.81h26.19c-.02-2.93-.03-5.86-.03-8.81V396.42Z"/><path class="f" d="M304.18,396.42h-26.2v325.09c0,2.95,0,5.88-.03,8.81h26.19c.03-2.93,.04-5.86,.04-8.81V396.42Z"/><path class="f" d="M252.44,396.42h-46.98v325.09c0,2.95,0,5.88,.01,8.81h46.95c0-2.93,.01-5.86,.01-8.81V396.42Z"/></g></g><path class="m" d="M228.96,257.99c-89.15,0-161.42,30.62-161.42,68.38v54.91c0,37.77,72.27,68.38,161.42,68.38s161.42-30.62,161.42-68.38v-54.91c0-37.77-72.27-68.38-161.42-68.38Z"/><path class="g" d="M228.96,257.99c-89.15,0-161.42,30.62-161.42,68.38v1.67c0,37.77,72.27,68.38,161.42,68.38s161.42-30.62,161.42-68.38v-1.67c0-37.77-72.27-68.38-161.42-68.38Z"/><path class="l" d="M228.96,264.38c-84.78,0-153.51,27.38-153.51,61.17v1.49c0,33.78,68.73,61.17,153.51,61.17s153.51-27.39,153.51-61.17v-1.49c0-33.78-68.73-61.17-153.51-61.17Z"/><path class="n" d="M377.53,390.99c-.68,0-1.33,.28-1.81,.77-23.91,24.35-80.61,41.48-146.76,41.48s-122.85-17.13-146.76-41.48c-.48-.49-1.13-.77-1.81-.77h0c-2.2,0-3.37,2.62-1.88,4.24,23.46,25.49,81.97,43.56,150.45,43.56s127-18.07,150.45-43.56c1.49-1.62,.32-4.24-1.88-4.24h0Z"/><path class="n" d="M377.53,378.88c-.68,0-1.33,.28-1.81,.77-23.91,24.35-80.61,41.48-146.76,41.48s-122.85-17.13-146.76-41.48c-.48-.49-1.13-.77-1.81-.77h0c-2.2,0-3.37,2.62-1.88,4.24,23.46,25.49,81.97,43.56,150.45,43.56s127-18.07,150.45-43.56c1.49-1.62,.32-4.24-1.88-4.24h0Z"/><path class="n" d="M377.53,366.76c-.68,0-1.33,.28-1.81,.77-23.91,24.35-80.61,41.48-146.76,41.48s-122.85-17.13-146.76-41.48c-.48-.49-1.13-.77-1.81-.77h0c-2.2,0-3.37,2.62-1.88,4.24,23.46,25.49,81.97,43.56,150.45,43.56s127-18.07,150.45-43.56c1.49-1.62,.32-4.24-1.88-4.24h0Z"/><g><polygon class="f" points="87.06 621.65 81.2 626.76 84.93 640.45 92.85 639.42 98.24 633.35 93.32 624.74 87.06 621.65"/><polygon class="f" points="110.49 641.56 105.61 648.11 115.18 662.19 126.34 657.82 130.3 650.74 119.78 638.92 110.49 641.56"/><polygon class="f" points="153.73 658.03 150.63 665.42 159.96 675.43 177.91 670.85 179.94 663.21 165.28 656.17 153.73 658.03"/><polygon class="f" points="205.47 665.95 204.5 673.71 239.47 682.99 253.41 673.71 252.44 665.95 235.1 659.48 205.47 665.95"/><polygon class="f" points="277.98 663.21 280 670.85 300.44 671.23 307.28 665.42 304.18 658.03 288.51 655.11 277.98 663.21"/><polygon class="f" points="327.5 650.78 331.57 657.82 349 657.82 352.31 648.11 347.42 641.56 334.11 642.11 327.5 650.78"/><polygon class="f" points="359.67 633.35 365.07 639.42 374.4 635.85 376.71 626.76 370.85 621.65 364.24 624.39 359.67 633.35"/></g></g><g><path class="e" d="M228.57,235.95c-93.08,0-168.53,36.92-168.53,82.46v18.55c0,45.54,75.45,82.46,168.53,82.46s168.53-36.92,168.53-82.46v-18.55c0-45.54-75.45-82.46-168.53-82.46Z"/><path class="m" d="M228.57,244.58c-52.17,0-94.45,14.04-94.45,31.35v7.05c0,17.32,42.29,31.35,94.45,31.35s94.45-14.04,94.45-31.35v-7.05c0-17.32-42.29-31.35-94.45-31.35Z"/><path class="d" d="M228.57,406.12c-93.08,0-168.53-32.21-168.53-77.75v8.59c0,45.54,75.45,82.46,168.53,82.46s168.53-36.92,168.53-82.46v-8.59c0,45.54-75.45,77.75-168.53,77.75Z"/><path class="f" d="M177.69,278.91l5.16-13.68c2.58-6.85,9.14-11.38,16.46-11.38h58.51c7.32,0,13.87,4.53,16.46,11.38l5.16,13.68c1.08,2.86,3.81,4.75,6.87,4.75h6.23c5.13,0,8.68-5.13,6.87-9.93l-11.02-29.2c-2.58-6.85-9.14-11.38-16.46-11.38h-86.71c-7.32,0-13.87,4.53-16.46,11.38l-11.02,29.2c-1.81,4.8,1.74,9.93,6.87,9.93h6.23c3.05,0,5.79-1.89,6.87-4.75Z"/></g><path class="j" d="M163.3,508.93c-50.16,0-90.83-19.84-90.83-44.31h-19.57c0,33.77,49.43,61.14,110.4,61.14,12.96,0,13.16-16.84,0-16.84Z"/><path class="j" d="M170.89,547.88l-9.66-3.06c-3.7-1.17-6.21-4.61-6.21-8.49v-18.38c0-6.03,5.86-10.31,11.6-8.49l9.66,3.06c3.7,1.17,6.21,4.61,6.21,8.49v18.38c0,6.03-5.86,10.31-11.6,8.49Z"/></g></svg>