<?xml version="1.0" encoding="UTF-8"?><svg id="a" xmlns="http://www.w3.org/2000/svg" xmlns:xlink="http://www.w3.org/1999/xlink" viewBox="0 0 450 802.43"><defs><style>.c{fill:#fff;}.d{fill:#4d4d4d;}.e{fill:#f08523;}.f{fill:#ea5514;}.g{clip-path:url(#b);}.h,.i{fill:none;}.j,.k{fill:#9d8b88;}.l{fill:#a8a8a8;}.m{fill:#231815;}.i,.k{stroke:#231815;stroke-miterlimit:10;stroke-width:10px;}</style><clipPath id="b"><path class="h" d="M153.02,366.21s-10.52,15.03-10.49,19.02c.03,3.99,2.67,8.06,10.21,10.67,0,0,.95,.14,2.66-1.51,1.71-1.65,3.24-5.12,17.2-17.59,0,0,3.41-3.36,8.41-6.43,1.02-.63,1.53-1.85,1.22-3.01-1.13-4.28-3.82-14.26-5.33-18.15-1.69-4.34-2.35-7.93-6.47-11.13-1.16-.9-2.76-1.03-4.06-.32-3.82,2.08-13.79,6.65-33.1,10.53,0,0-4.62,1.05,3.43,7.95,8.05,6.9,16.31,9.96,16.31,9.96Z"/></clipPath></defs><g><path class="k" d="M186.68,722.93l-4.87-1.04,.05-7.16s.05-2.96-2.17-3.19c-2.74-.28-2.31,2.59-2.31,2.59v7.09l-3.52-.71s-.39-6.42-.76-7.8c-.16-.61-1.76-1.39-2.31-1.3-1.6,.26-2.19,2.08-2.1,3.69l.22,4.34-26.43-4.36s-1.86-6.48-9.78-9.04c-3.55-1.15-6.49-1.4-8.93-.99-6.51-10.84-21.03-17.09-39.81-19.25-21.45-2.47-37.54,7.09-33.32,21.94,3.52,12.41,18.45,25.54,40.41,28.65,5.51,.78,10.62,.66,15.16-.16,.14,.39,.27,.77,.44,1.17,3.77,8.62,10.36,6.67,10.36,6.67l1.01-.59s15.22,28.4,16.29,29.08,1.5,.68,2.56-.04c1.06-.72,.61-2.11,.61-2.11l-1.71-3.37,4.26-3.38s1.78-1.38,.85-2.8c-1.14-1.75-2.63-.13-2.63-.13l-4.2,3.37-1.25-2.41s3.6-3.29,4.25-4.16c.28-.38-.02-1.7-.34-1.99-.91-.82-2.27-.3-3.19,.52l-2.46,2.2-10.02-17.7s2.95-4.19,.68-10.09c-.15-.4-.31-.78-.48-1.15,1.11-1.02,2.08-2.11,2.91-3.28,.98,.46,2.06,.85,3.24,1.18,11.95,3.26,15.4-5.11,15.4-5.11l.23-1.52s41.69,7.89,43.27,7.35c1.57-.54,1.94-.98,2.08-2.65,.14-1.67-1.66-2.37-1.66-2.37Zm-64.75-8.06c.07-1.15,.37-1.96,.81-2.55,.59,2.17,.75,4.22,.54,6.13-.93-1.18-1.42-2.44-1.35-3.57Zm-3.7,21.35c-.07,.66-.38,1.27-.85,1.73-.41,.41-.55,.81-1.77,1.39,0,0-2.46,1.45-4.55-2.2-.35-.61-.62-1.24-.83-1.85,2.76-.82,5.25-1.93,7.42-3.28,.47,1.17,.77,2.59,.59,4.2Zm-8.48-4.48c.13-1.54,.72-2.79,1.61-3.42,1.82-1.29,3.08-.73,4.12,.36,.12,.13,.27,.29,.42,.47-1.78,1.07-3.84,1.94-6.15,2.59Zm9.73-5.4c-2.04-2.73-4.55-3.76-7.21-3.72-2.99,.04-7.23,4.01-6.84,10.02-2.36,.34-4.9,.48-7.6,.41-14.62-.42-31.14-6.85-39.64-20.51-5.88-9.45-4.97-24.68,23.54-22.8,15.23,1,31.39,6.91,38.23,16.71-1.21,.72-2.25,1.66-3.12,2.78-2.39,3.06-1.89,10.48,4.3,15.07-.48,.72-1.04,1.4-1.66,2.04Zm17.27-6.7s-.55,3.72-6.02,2.85c-1.57-.25-2.97-.75-4.17-1.39,.78-2.61,.91-5.41,.27-8.3-.14-.64-.31-1.26-.5-1.88,2.11-.08,6.17,.22,9.37,3.45,.61,.62,.99,1.43,1.08,2.3,.08,.76,.38,1.23-.04,2.97Z"/><path class="i" d="M366.41,510.52s-5.23-7.15-18.38-4.72-27.83,3.06-27.83,3.06c-7.4-5.11-27.06-10.34-27.06-10.34,0,0-15.7-7.15-44.43-15.7s-56.81-7.91-56.81-7.91l-.13-1.02c1.79-14.55,6-29.11,18.51-41.49,12.51-12.38,12.64-15.32,12.64-15.32,12.38-20.04,11.62-23.49,10.6-41.74-1.02-18.26-11.55-29.04-11.55-29.04,0,0-5.3-15.77-20.3-19.79s-20.55-.96-20.55-.96c-9.3,5.01-13.93,9.74-16.23,13.03-4.66,2.31-14.43,6.29-31.54,9.73,0,0-4.62,1.05,3.43,7.95s16.31,9.96,16.31,9.96c0,0-10.52,15.03-10.49,19.02s2.67,8.06,10.21,10.67c0,0,.95,.14,2.66-1.51,1.71-1.65,3.24-5.12,17.2-17.59,0,0,2.49-2.45,6.34-5.08,3.4,.34,7.68,.83,7.78,1.14,.17,.51,13.45,8.51,13.45,8.51,1.87,3.91,1.32,6.55,.85,8.68-.92,4.18-2.58,9.37-24.68,30.98-27.3,26.68-34.64,41.19-34.64,41.19,0,0-5.36,8.43-10.21,21.19-4.85,12.77-4.34,24.51-4.34,24.51-1.53,4.09-3.4,10.89-3.32,18.64,.09,7.74,2.81,21.7,4.26,28.09,1.45,6.38,5.02,10.47,10.64,19.23,5.62,8.77,33.19,34.55,42.47,42.47,2.79,2.38,5.57,4.19,8.1,5.56,.82,8.46,1.46,23.31-1.81,38.07,0,0-1.15,5.25-6.26,8.32-5.11,3.06-36,4.21-36,4.21,0,0-11.36-1.28-14.17,2.04-2.81,3.32,1.02,4.6,1.02,4.6l5.49,2.3s-5.11,1.66-5.87,4.72c-.77,3.06,1.02,3.57,1.02,3.57,0,0,.64,1.66,7.53,2.04s12,1.15,12,1.15c0,0-1.91,3.7,.77,5.74,2.68,2.04,8.81-.51,8.81-.51l30.51-13.4s9.06-4.85,9.96-7.28c.89-2.43-3.06-8.17-2.68-19.28,.25-7.23,2.59-21.69,4.2-30.92,28.69,9.49,36.1,13.39,36.1,13.39,12.51,6.04,20.34,13.36,20.34,13.36,2.69,3.25,5.27,4.76,7.32,5.44,.21,13.7-.66,42.29-11.4,46.99-14.21,6.21-46.3,11.91-46.3,11.91,0,0-5.02,1.53-4.51,4,.51,2.47,2.21,3.92,6.3,4.34,4.09,.43,13.02,.6,13.02,.6,0,0,.68,8.68,4.17,9.96,3.49,1.28,6.04,1.45,22.64-1.79,0,0,4.6,7.32,10.13,7.06,0,0,3.23,.6,3.91-3.74,.68-4.34,.47-11.15,2.07-14.04,1.59-2.89,4.4-10.21,4.66-13.11s.34-5.02,0-9.87c-.27-3.86,7.45-33.07,10.6-44.78,3.5-2.3,4.63-5.18,4.63-5.18,12.17-17.45,11.83-29.79,11.83-29.79,5.87-10.38,6.64-16.26,6.64-16.26,13.62-27.4,19.66-32.6,19.66-32.6,7.02-4.98,15.19-15.96,15.19-15.96,8.94-5.49,19.15-21.32,23.62-31.4,4.47-10.08,1.91-15.32,1.91-15.32Z"/></g><g><g><path class="d" d="M122.74,712.23c.59,2.17,.75,4.22,.54,6.13,.79,.99,1.9,1.92,3.28,2.65,.78-2.61,.91-5.41,.27-8.3-.14-.64-.31-1.26-.5-1.88-.24,0-.45,.02-.64,.04-1.21,.1-2.27,.45-2.96,1.36Z"/><path class="d" d="M119.48,726.25c.62,.83,1.21,1.82,1.73,2.99,1.11-1.02,2.08-2.11,2.91-3.28-1.11-.52-2.1-1.11-2.98-1.76-.48,.72-1.04,1.4-1.66,2.04Z"/><path class="d" d="M97.83,732.96c-14.62-.41-31.14-6.85-39.64-20.51-5.88-9.45-4.97-24.68,23.54-22.8,15.23,1,31.39,6.91,38.23,16.71,1.11-.66,2.37-1.13,3.8-1.37-6.51-10.84-21.03-17.09-39.81-19.25-21.45-2.47-37.54,7.09-33.32,21.94,3.52,12.41,18.45,25.54,40.41,28.65,5.51,.78,10.62,.66,15.16-.16-.44-1.27-.69-2.47-.76-3.61-2.36,.34-4.9,.48-7.6,.41Z"/><path class="d" d="M110.22,735.21c2.76-.82,5.25-1.93,7.42-3.28-.5-1.25-1.2-2.23-1.74-2.87-1.78,1.07-3.84,1.94-6.15,2.59-.09,1.08,.05,2.31,.47,3.56Z"/><path class="l" d="M122.74,712.23c-.03-.1-.05-.19-.07-.29-.57-1.98-1.5-3.84-2.71-5.58-1.21,.72-2.25,1.66-3.12,2.78-2.39,3.06-1.89,10.48,4.3,15.07,1.16-1.74,1.89-3.71,2.14-5.85-.93-1.18-1.42-2.44-1.35-3.57,.07-1.15,.37-1.96,.81-2.55Z"/><path class="l" d="M186.68,722.85l-4.87-1.04,.05-7.16s.05-2.96-2.17-3.19c-2.74-.28-2.31,2.59-2.31,2.59v7.09l-3.52-.71s-.39-6.42-.76-7.8c-.16-.61-1.76-1.39-2.31-1.3-1.6,.26-2.19,2.08-2.1,3.69l.22,4.34-26.43-4.36s-1.86-6.48-9.78-9.04c-3.55-1.14-6.49-1.4-8.93-.99,1.09,1.82,1.96,3.77,2.58,5.84,2.11-.08,6.17,.22,9.37,3.45,.61,.62,.99,1.43,1.08,2.3,.08,.76,.38,1.23-.04,2.97,0,0-.55,3.72-6.02,2.85-1.57-.25-2.97-.75-4.17-1.39-.52,1.75-1.35,3.41-2.44,4.96,.98,.46,2.06,.85,3.24,1.18,11.95,3.26,15.4-5.11,15.4-5.11l.23-1.52s41.69,7.89,43.27,7.35c1.57-.54,1.94-.98,2.08-2.65,.14-1.67-1.66-2.37-1.66-2.37Z"/><path class="l" d="M122.67,711.95c.03,.1,.05,.19,.07,.29,.69-.92,1.75-1.27,2.96-1.36,.18-.01,.4-.03,.64-.04-.62-2.08-1.49-4.03-2.58-5.84-1.44,.24-2.69,.71-3.8,1.37,1.22,1.74,2.14,3.6,2.71,5.58Z"/><path class="d" d="M123.28,718.36c-.25,2.15-.97,4.11-2.14,5.85,.88,.65,1.87,1.24,2.98,1.76,1.09-1.55,1.91-3.21,2.44-4.96-1.38-.73-2.49-1.66-3.28-2.65Z"/><path class="j" d="M118.23,736.14c-.07,.66-.38,1.27-.85,1.73-.41,.41-.55,.81-1.77,1.39,0,0-2.46,1.45-4.55-2.2-.35-.61-.62-1.24-.83-1.85-1.28,.38-2.63,.7-4.03,.95,.14,.39,.27,.77,.44,1.17,3.77,8.62,10.36,6.67,10.36,6.67l1.01-.59s15.22,28.4,16.29,29.08,1.5,.68,2.56-.04,.61-2.11,.61-2.11l-1.71-3.37,4.26-3.38s1.78-1.38,.85-2.8c-1.14-1.75-2.63-.13-2.63-.13l-4.2,3.37-1.25-2.41s3.6-3.29,4.25-4.16c.28-.38-.02-1.7-.34-1.99-.91-.82-2.27-.3-3.19,.52l-2.46,2.2-10.02-17.7s2.95-4.19,.68-10.09c-.15-.4-.31-.78-.48-1.15-1.07,.97-2.26,1.87-3.58,2.69,.47,1.17,.77,2.59,.59,4.2Z"/><path class="j" d="M112.27,722.53c-2.99,.04-7.23,4.01-6.84,10.02,1.52-.22,2.96-.52,4.32-.9,.13-1.54,.72-2.79,1.61-3.42,1.82-1.29,3.08-.73,4.12,.36,.12,.13,.27,.29,.42,.47,1.37-.82,2.57-1.76,3.59-2.81-2.04-2.73-4.55-3.76-7.21-3.72Z"/><path class="d" d="M109.75,731.65c-1.36,.38-2.8,.68-4.32,.9,.07,1.13,.32,2.34,.76,3.61,1.4-.25,2.74-.57,4.03-.95-.42-1.25-.56-2.48-.47-3.56Z"/><path class="j" d="M115.9,729.07c.55,.64,1.24,1.62,1.74,2.87,1.32-.81,2.51-1.72,3.58-2.69-.53-1.17-1.11-2.16-1.73-2.99-1.02,1.05-2.22,1.99-3.59,2.81Z"/></g><g><path class="e" d="M267.33,652.18s3.06,48.09-11.15,54.3-46.3,11.91-46.3,11.91c0,0-5.02,1.53-4.51,4s2.21,3.91,6.3,4.34,13.02,.6,13.02,.6c0,0,.68,8.68,4.17,9.96s6.04,1.45,22.64-1.79c0,0,4.6,7.32,10.13,7.06,0,0,3.23,.6,3.91-3.74s.47-11.15,2.07-14.04,4.4-10.21,4.66-13.11,.34-5.02,0-9.87,11.91-49.62,11.91-49.62h-16.85Z"/><path class="e" d="M188.39,614.82s4.09,22.68-.89,45.17c0,0-1.15,5.25-6.26,8.32s-36,4.21-36,4.21c0,0-11.36-1.28-14.17,2.04s1.02,4.6,1.02,4.6l5.49,2.3s-5.11,1.66-5.87,4.72,1.02,3.57,1.02,3.57c0,0,.64,1.66,7.53,2.04s12,1.15,12,1.15c0,0-1.91,3.7,.77,5.74s8.81-.51,8.81-.51l30.51-13.4s9.06-4.85,9.96-7.28-3.06-8.17-2.68-19.28,5.71-39.32,5.71-39.32l-4.81-13.53-12.13,9.45Z"/><path class="c" d="M162.6,343.1s1.28-8.3,18.45-17.55c0,0,5.55-3.06,20.55,.96s20.3,19.79,20.3,19.79c0,0,10.53,10.79,11.55,29.04s1.79,21.7-10.6,41.74c0,0-.13,2.94-12.64,15.32s-16.72,26.94-18.51,41.49l.13,1.02s28.09-.64,56.81,7.91,44.43,15.7,44.43,15.7c0,0,19.66,5.23,27.06,10.34,0,0,14.68-.64,27.83-3.06s18.38,4.72,18.38,4.72c0,0,2.55,5.23-1.91,15.32s-14.68,25.91-23.62,31.4c0,0-8.17,10.98-15.19,15.96,0,0-6.04,5.19-19.66,32.6,0,0-.77,5.87-6.64,16.26,0,0,.34,12.34-11.83,29.79,0,0-3.15,8.17-15.57,8,0,0-5.53,1.62-11.66-5.79,0,0-7.83-7.32-20.34-13.36,0,0-8.09-4.26-40.17-14.72,0,0-9.28-1.7-18.55-9.62s-36.85-33.7-42.47-42.47-9.19-12.85-10.64-19.23-4.17-20.34-4.26-28.09,1.79-14.55,3.32-18.64c0,0-.51-11.74,4.34-24.51s10.21-21.19,10.21-21.19c0,0,7.34-14.51,34.64-41.19,22.11-21.61,23.77-26.8,24.68-30.98,.47-2.13,1.02-4.77-.85-8.68,0,0-13.28-8-13.45-8.51s-11.91-1.53-11.91-1.53l-12.21-28.23Z"/><g><path class="e" d="M153.02,366.21s-10.52,15.03-10.49,19.02c.03,3.99,2.67,8.06,10.21,10.67,0,0,.95,.14,2.66-1.51,1.71-1.65,3.24-5.12,17.2-17.59,0,0,3.41-3.36,8.41-6.43,1.02-.63,1.53-1.85,1.22-3.01-1.13-4.28-3.82-14.26-5.33-18.15-1.69-4.34-2.35-7.93-6.47-11.13-1.16-.9-2.76-1.03-4.06-.32-3.82,2.08-13.79,6.65-33.1,10.53,0,0-4.62,1.05,3.43,7.95,8.05,6.9,16.31,9.96,16.31,9.96Z"/><g class="g"><path class="f" d="M153.02,366.21s11.38,4.05,28,4.17c0,0-27.09,15.1-36.52,31.83l-15.56-12.86,7.44-13.83,7.48-5.38,9.16-3.93Z"/></g></g><path class="m" d="M196.01,341.03c0,2.44-1.39,3.06-3.83,3.06s-3.83-1.6-3.83-4.04,1.09-4.04,3.53-4.04,4.13,2.58,4.13,5.02Z"/></g></g></svg>