<?xml version="1.0" encoding="UTF-8"?><svg id="a" xmlns="http://www.w3.org/2000/svg" viewBox="0 0 450 802.43"><defs><style>.b{fill:#fff;}.c{fill:#f08523;}.d{fill:none;}.e{fill:#9d8b88;}.f{fill:#a8a8a8;}.g,.h{fill:#231815;}.i{fill:#727171;}.h{stroke:#231815;stroke-miterlimit:10;stroke-width:10px;}</style></defs><path class="h" d="M343.32,475.07c-2.04-1.7-1.53-1.7-9.87-3.23-8.34-1.53-32.17,10.55-32.17,10.55,0,0-3.57-2.38-19.06-5.96-15.49-3.57-23.15-8.17-23.15-8.17,0,0-8.17-4.6-23.15-9.87-14.98-5.28-31.15-6.98-31.15-6.98,0,0-.17-7.15-1.36-29.45-1.19-22.3,2.89-53.96,2.89-53.96,0,0,1.7-12.94-.85-34.21-2.55-21.28-23.49-37.11-23.49-37.11,0,0-16.34-13.96-31.32-2.04-8.9,7.08-11.13,13.68-11.47,17.87-.25,.34-.45,.72-.59,1.13-2.22,6.44-9.3,26.94-12.25,35.53-1.46,.56-2.89,1.24-4.27,2.07-14.37,8.54-22.21,27.57-12,48.51,3.96,8.11,10.38,14.69,17.74,19.28h0c-.45,.99-.82,2.09-1.07,3.33-1.84,9.23,4.67,11.4,4.67,11.4l1.16,.1s-3.79,32-3.3,33.16c.49,1.16,.84,1.42,2.12,1.44,1.28,.02,1.71-1.39,1.71-1.39l.53-3.74,5.43-.33s2.25-.11,2.3-1.81c.07-2.09-2.08-1.61-2.08-1.61l-5.37,.36,.35-2.69s4.84-.63,5.87-.98c.45-.15,.96-1.41,.86-1.82-.28-1.2-1.69-1.55-2.91-1.4l-3.28,.4,1.92-20.25s.73-.27,1.71-.95c1.21,9.16,8.39,10.3,8.39,10.3l1.53-.13s.14,2.91,.36,7.22c-3.93,8.35-6.24,12.44-6.24,12.44-21.19,26.81-21.96,38.21-20.77,59.83s22.81,64.34,22.81,64.34c2.38,25.19,6.13,30.98,12.26,40.51,1.46,2.26,3.33,3.6,5.33,4.33,3.15,28.37,1.38,40.78,1.14,45.46-.26,4.94-4.51,7.4-4.51,7.4,0,0-8.34,1.87-19.57,4.85-11.23,2.98-23.36,4.28-23.36,4.28,0,0-10.15,.51-11.94,3.32-1.79,2.81,2.55,4.15,2.55,4.15,0,0,7.4,.26,9.51,.51s.7,2.04,.7,2.04c0,0-2.68,1.47-3.57,4.02s2.62,3.32,2.62,3.32c0,0,12.51,.77,19.4,.06s5.74,1.47,5.74,1.47c-.06,2.81,.3,3.64,.3,3.64,1.87,2.55,6.47,1.19,6.47,1.19,0,0,14.81-8,24.68-16.17,9.87-8.17,7.83-10.55,7.83-10.55-8.17-22.74-5.11-49.09-2.95-61.33,11.37-10.51,13.31-10.87,19.46-12.2,6.3-1.36,20.77,5.96,29.45,11.74,8.68,5.79,22.98,21.45,22.98,21.45,2.5,3.35,4.93,5.63,7.2,7.16-.7,9.88-2.64,33.47-5.84,41.86-4.09,10.72-9.7,13.62-9.7,13.62-13.45,8.51-30.47,13.62-30.47,13.62,0,0-7.83,.68-9.36,4.43s2.55,4.08,2.55,4.08l18.72-.34,8.68,7.32s5.96,3.57,13.62-.68c7.66-4.26,13.28-.85,13.28-.85,0,0,8.34,5.11,11.4,3.4s.17-5.45,.17-5.45c-8.85-12.6-9.7-21.79-9.7-21.79-2.2-11.34,6.37-42.47,10.76-57.99,2.37-2.04,11.95-11.08,18.17-29.16,7.15-20.77,26.72-54.64,26.72-54.64,10.38-15.49,10.04-33.53,10.04-33.53,11.23-14.13,16-24.51,16-24.51,9.19-25.36,4.09-39.49,2.04-41.19Zm-166.38-120s.24,7.26-1.89,19.69c-.52-1.11-1.07-2.23-1.66-3.35-5.01-9.42-12.76-16.65-21.35-20.66,5.31-4.27,9.17-8.13,11.68-10.87,.3-.06,.6-.13,.91-.19,14.17-2.87,12.32,15.38,12.32,15.38Zm-57.56,48.89c-9.45-13.53-11.73-31.48,1.64-45.32,.9-.94,1.97-1.73,3.16-2.4-.28,1.72,.29,1.38,.29,1.38,10.23,1.82,15.64,.75,17.44,.23,.42-.12,.81-.31,1.18-.55,.95-.63,1.85-1.26,2.74-1.88,8.19,2.51,16.29,7.83,21.43,15.86,2.67,4.18,4.65,8.5,5.93,12.76-1.82,7.96-4.51,17.3-8.5,27.7-.86,2.23-1.7,4.39-2.52,6.47-1.09,.53-2.23,.97-3.42,1.33,.57,1.19,.98,2.58,1.22,4.17v.03c-.24-1.61-.66-3-1.23-4.2-1.21-2.51-3.1-4.19-5.41-5.24-2.56-1.17-6.99-.33-10.39,2.92-.65-1.62-1.74-2.85-3.11-3.77-1.91-1.29-5.74-1.1-8.84,1.4-4.43-2.72-8.45-6.37-11.61-10.88Zm15.85,24.99c-.57,.1-.91,.35-2.25,.13,0,0-2.85-.22-2.47-4.41,.12-1.33,.47-2.53,.97-3.54,2.4,1.23,4.88,2.25,7.37,3.06-.28,1.25-.85,2.6-1.94,3.83-.44,.5-1.04,.82-1.69,.94Zm12.61,7.14s-3.74,.34-4.17-5.19c-.15-1.97,.12-3.77,.66-5.31,3.4,.65,6.77,.86,10.01,.62,.24,2.13,.07,4.92-1.62,7.65-.46,.74-1.17,1.29-1.99,1.58-.72,.26-1.11,.66-2.89,.65Z"/><g><path class="c" d="M178.55,621.8s-9.53,37.45,1.53,68.26c0,0,2.04,2.38-7.83,10.55s-24.68,16.17-24.68,16.17c0,0-4.6,1.36-6.47-1.19,0,0-.36-.83-.3-3.64,0,0,1.15-2.17-5.74-1.47s-19.4-.06-19.4-.06c0,0-3.51-.77-2.62-3.32s3.57-4.02,3.57-4.02c0,0,1.4-1.79-.7-2.04s-9.51-.51-9.51-.51c0,0-4.34-1.34-2.55-4.15s11.94-3.32,11.94-3.32c0,0,12.13-1.3,23.36-4.28s19.57-4.85,19.57-4.85c0,0,4.26-2.47,4.51-7.4s2.21-18.47-1.7-50.3c-3.91-31.83,17.02-4.43,17.02-4.43Z"/><path class="c" d="M264.17,643.41s11.06-2.55,7.15,11.23c-3.91,13.79-14.13,49.19-11.74,61.45,0,0,.85,9.19,9.7,21.79,0,0,2.89,3.74-.17,5.45s-11.4-3.4-11.4-3.4c0,0-5.62-3.4-13.28,.85-7.66,4.26-13.62,.68-13.62,.68l-8.68-7.32-18.72,.34s-4.09-.34-2.55-4.09,9.36-4.43,9.36-4.43c0,0,17.02-5.11,30.47-13.62,0,0,5.62-2.89,9.7-13.62,4.09-10.72,6.13-46.3,6.13-46.3,0,0,1.19-7.49,7.66-9.02Z"/><path class="b" d="M139.57,317.12s-3.91-10.55,11.06-22.47c14.98-11.91,31.32,2.04,31.32,2.04,0,0,20.94,15.83,23.49,37.11s.85,34.21,.85,34.21c0,0-4.09,31.66-2.89,53.96,1.19,22.3,1.36,29.45,1.36,29.45,0,0,16.17,1.7,31.15,6.98s23.15,9.87,23.15,9.87c0,0,7.66,4.6,23.15,8.17,15.49,3.57,19.06,5.96,19.06,5.96,0,0,23.83-12.09,32.17-10.55s7.83,1.53,9.87,3.23,7.15,15.83-2.04,41.19c0,0-4.77,10.38-16,24.51,0,0,.34,18.04-10.04,33.53,0,0-19.57,33.87-26.72,54.64-7.15,20.77-18.72,29.62-18.72,29.62,0,0-9.7,5.96-20.77-8.85,0,0-14.3-15.66-22.98-21.45s-23.15-13.11-29.45-11.74-8.17,1.7-20.26,12.94c0,0-13.45,6.81-19.57-2.72s-9.87-15.32-12.26-40.51c0,0-21.62-42.72-22.81-64.34s-.43-33.02,20.77-59.83c0,0,9.19-16.34,22.21-50.3,13.02-33.96,12.26-56.68,12.26-56.68,0,0,1.85-18.26-12.32-15.38s-24.45,6.7-24.45,6.7l-.6-29.28Z"/><path class="g" d="M169.85,305.99c0,2.28-1,3.3-3.38,2.79-1.93-.41-2.92-1.66-3.69-3.81-.58-1.6,.02-3.94,1.99-3.94s5.08,2.68,5.08,4.95Z"/><path class="d" d="M144.32,425.59c-.54,1.54-.81,3.35-.66,5.31,.43,5.53,4.17,5.19,4.17,5.19,1.79,0,2.17-.4,2.89-.65,.82-.29,1.53-.84,1.99-1.58,1.68-2.72,1.86-5.52,1.62-7.65-3.24,.24-6.61,.02-10.01-.62Z"/><path class="d" d="M149.01,420.57c-.07,.01-.13,.03-.2,.05,.87,.05,1.73,.07,2.59,.05-.63-.21-1.41-.27-2.39-.1Z"/><path class="d" d="M136.38,417.64c.57,.24,1.13,.47,1.7,.68-.39-.36-.94-.6-1.7-.68Z"/><path class="d" d="M130.5,424.67c-.37,4.19,2.47,4.41,2.47,4.41,1.34,.23,1.68-.02,2.25-.13,.65-.11,1.25-.44,1.69-.94,1.09-1.24,1.65-2.59,1.94-3.83-2.5-.81-4.97-1.83-7.37-3.06-.5,1.01-.86,2.21-.97,3.54Z"/><path class="d" d="M139.82,413.45c1.37,.93,2.46,2.16,3.11,3.77,3.4-3.25,7.83-4.09,10.39-2.92,2.31,1.06,4.2,2.73,5.41,5.24,2.46-.74,4.73-1.84,6.72-3.33,12.04-9.06,12.56-28.08,1.79-44.94-11.3-17.68-36.98-22.22-46.23-12.64-13.37,13.84-11.09,31.79-1.64,45.32,3.15,4.52,7.18,8.16,11.61,10.89,3.09-2.51,6.94-2.7,8.85-1.4Z"/><path class="i" d="M138.97,420.26c-.12-.77-.37-1.46-.89-1.94-.57-.21-1.14-.44-1.7-.68-.18-.02-.36-.04-.57-.04-1.52,0-3.26,1.34-4.33,3.52,2.4,1.23,4.88,2.25,7.37,3.06,.38-1.66,.24-3.15,.13-3.93Z"/><path class="i" d="M173.36,371.41c-10.74-20.21-34.13-30.39-51.32-20.17-14.37,8.54-22.21,27.57-12,48.51,3.96,8.12,10.38,14.7,17.75,19.29,.83-1.8,1.94-3.18,3.18-4.19-4.43-2.72-8.46-6.37-11.61-10.89-9.45-13.53-11.73-31.48,1.64-45.32,9.25-9.58,34.93-5.05,46.23,12.64,10.77,16.86,10.25,35.88-1.79,44.94-1.98,1.49-4.26,2.59-6.72,3.33,.75,1.55,1.23,3.43,1.38,5.68,2.15-.59,4.2-1.41,6.1-2.5,16.07-9.25,18.61-29.78,7.15-51.32Z"/><path class="i" d="M148.81,420.62c-1.8,.42-3.56,2.28-4.5,4.97,3.4,.65,6.77,.86,10.01,.62-.14-1.24-.42-2.25-.63-2.88-.41-1.25-1.07-2.25-2.3-2.66-.85,.02-1.72,0-2.59-.05Z"/><path class="e" d="M138.08,418.32c1.02,.38,2.04,.71,3.06,1,.55-.78,1.15-1.48,1.79-2.09-.65-1.62-1.74-2.85-3.11-3.77-1.91-1.29-5.75-1.1-8.85,1.4,1.75,1.07,3.56,2,5.4,2.78,.76,.08,1.31,.32,1.7,.68Z"/><path class="e" d="M138.25,428.73c.05-1.66,.28-3.17,.65-4.53l-.06-.02c-.28,1.25-.85,2.6-1.94,3.83-.44,.5-1.04,.82-1.69,.94-.57,.1-.91,.35-2.25,.13,0,0-2.85-.22-2.47-4.41,.12-1.33,.47-2.53,.97-3.54-1.25-.64-2.48-1.33-3.68-2.08-.45,.98-.82,2.08-1.07,3.32-1.84,9.23,4.67,11.4,4.67,11.4l1.16,.1s-3.79,32-3.3,33.16c.49,1.16,.84,1.42,2.12,1.44,1.28,.02,1.71-1.39,1.71-1.39l.53-3.74,5.43-.33s2.25-.11,2.3-1.81c.07-2.09-2.08-1.61-2.08-1.61l-5.37,.36,.35-2.69s4.84-.63,5.87-.98c.45-.15,.96-1.41,.86-1.82-.28-1.2-1.69-1.55-2.91-1.4l-3.28,.4,1.92-20.25s.73-.27,1.71-.95c-.14-1.06-.2-2.21-.16-3.49Z"/><path class="e" d="M135.81,417.6c.21,0,.39,.02,.57,.04-1.84-.78-3.66-1.71-5.4-2.78-1.24,1-2.35,2.38-3.18,4.19,1.2,.75,2.43,1.44,3.68,2.08,1.07-2.18,2.81-3.51,4.33-3.52Z"/><path class="i" d="M138.08,418.32c.52,.48,.78,1.17,.89,1.94,.12,.78,.25,2.26-.13,3.93l.06,.02c.51-1.9,1.29-3.53,2.24-4.89-1.03-.29-2.05-.62-3.06-1Z"/><path class="f" d="M153.32,414.31c-2.56-1.17-6.99-.33-10.39,2.92,.32,.8,.53,1.69,.63,2.68,1.76,.37,3.52,.61,5.26,.71,.07-.02,.13-.04,.2-.05,.98-.17,1.76-.11,2.39,.1,2.56-.06,5.02-.43,7.33-1.12-1.21-2.51-3.1-4.19-5.41-5.24Z"/><path class="f" d="M152.71,433.86c-.46,.74-1.17,1.29-1.99,1.58-.72,.26-1.11,.66-2.89,.65,0,0-3.74,.34-4.17-5.19-.15-1.97,.12-3.77,.66-5.31-.43-.08-.85-.17-1.28-.27-.93,3.73-3.08,5.83-4.62,6.9,1.21,9.16,8.39,10.3,8.39,10.3l1.53-.13s2.04,42.38,2.94,43.79c.89,1.4,1.4,1.66,3.06,1.4,1.66-.26,1.91-2.17,1.91-2.17l-.13-4.98,6.98-1.62s2.89-.64,2.6-2.85c-.37-2.73-3.06-1.64-3.06-1.64l-6.9,1.64-.13-3.57s6.15-1.88,7.4-2.55c.55-.3,.94-2.04,.72-2.55-.62-1.49-2.53-1.64-4.08-1.18l-4.17,1.23-1.91-26.72s5.87-3.32,6.51-11.62c.1-1.36,.1-2.6,.03-3.76-1.86,.51-3.79,.83-5.78,.98,.24,2.13,.07,4.92-1.62,7.65Z"/><path class="f" d="M148.81,420.62c-1.73-.1-3.49-.34-5.26-.71,.14,1.54,0,3.31-.51,5.39v.03c.42,.09,.85,.19,1.27,.27,.94-2.69,2.7-4.55,4.5-4.97Z"/><path class="i" d="M151.4,420.67c1.23,.41,1.89,1.41,2.3,2.66,.21,.64,.49,1.65,.63,2.88,1.99-.15,3.92-.47,5.78-.98-.15-2.25-.63-4.13-1.38-5.68-2.3,.69-4.77,1.06-7.33,1.12Z"/><path class="f" d="M142.93,417.23c-.64,.61-1.24,1.3-1.79,2.09,.8,.23,1.61,.43,2.41,.6-.09-.99-.3-1.89-.63-2.68Z"/><path class="f" d="M143.04,425.32c-1.38-.31-2.76-.68-4.13-1.12-.37,1.37-.6,2.87-.65,4.53-.04,1.28,.02,2.44,.16,3.49,1.54-1.07,3.68-3.17,4.62-6.9Z"/><path class="f" d="M143.56,419.91c-.8-.17-1.61-.37-2.41-.6-.95,1.36-1.73,2.98-2.24,4.89,1.37,.44,2.75,.82,4.13,1.12v-.03c.52-2.07,.67-3.85,.52-5.39Z"/><path class="c" d="M153.57,313.33l12.07,19.72c.99,1.62,.82,3.68-.41,5.12-3.25,3.79-10.48,11.38-22.14,19.14-.36,.24-.76,.43-1.18,.55-1.8,.52-7.21,1.59-17.44-.23,0,0-1.28,.77,.89-5.62,1.85-5.45,10.68-31.03,13.22-38.37,.56-1.61,2-2.75,3.69-2.92s4.34-.1,8.34,.58c1.23,.21,2.31,.95,2.96,2.02Z"/></g></svg>