<?xml version="1.0" encoding="UTF-8"?><svg id="a" xmlns="http://www.w3.org/2000/svg" viewBox="0 0 450 802.43"><defs><style>.b{fill:#202228;}.c{fill:#f4f4f4;}.d{fill:#a92524;}.e{fill:#be2524;}.f{fill:#231815;stroke:#231815;stroke-miterlimit:10;stroke-width:10px;}</style></defs><path class="f" d="M225,35.82c-96.96,0-175.57,38.16-175.57,85.24v10.02c0,18.1,11.62,34.87,31.43,48.67v4.3c0,2.44,.26,4.86,.77,7.24-.28-.81-.54-1.62-.75-2.43,.34,7.61,3.2,14.91,8.21,21.72v32.78l-10.83,2.18v29.64l10.83,2.47v302.38c-5.72,7.43-8.86,15.47-8.86,23.86v104.59c0,37.62,62.81,68.12,140.3,68.12s140.3-30.5,140.3-68.12v-104.59c0-7.69-2.63-15.08-7.46-21.97V215.57c7.95-8.62,12.37-18.17,12.37-28.23v-2.53c0-.25,.02-.5,.02-.76v-2.02c21.86-14.21,34.81-31.85,34.81-50.95v-10.02c0-47.08-78.6-85.24-175.57-85.24Z"/><g><path class="b" d="M220.53,535.77c-77.48,0-140.3,30.5-140.3,68.12v104.59c0,37.62,62.81,68.12,140.3,68.12s140.3-30.5,140.3-68.12v-104.59c0-37.62-62.81-68.12-140.3-68.12Z"/><g><path class="e" d="M221.23,114.07c-72.98,0-132.14,28.72-132.14,64.16v411.68c0,35.43,59.16,64.16,132.14,64.16s132.14-28.72,132.14-64.16V178.22c0-35.43-59.16-64.16-132.14-64.16Z"/><path class="d" d="M223.31,58.96c-78.67,0-142.45,30.96-142.45,69.16v55.94c0,38.2,63.78,69.16,142.45,69.16s142.45-30.96,142.45-69.16v-55.94c0-38.2-63.78-69.16-142.45-69.16Z"/><path class="d" d="M154.85,644.79c19.97,5.88,43.4,9.27,68.47,9.27,23.34,0,45.27-2.94,64.3-8.1V122.17c-19.03-5.16-40.96-8.1-64.3-8.1-25.06,0-48.5,3.39-68.47,9.27V644.79Z"/><path class="e" d="M225,35.82c-96.96,0-175.57,38.16-175.57,85.24v10.02c0,47.08,78.6,85.24,175.57,85.24s175.57-38.16,175.57-85.24v-10.02c0-47.08-78.6-85.24-175.57-85.24Z"/><path class="e" d="M364.53,122.38c.02,.5,.04,1.01,.04,1.52v55.94c0,38.2-63.78,69.16-142.45,69.16-72.37,0-132.12-26.2-141.24-60.13,1.66,37.5,64.78,67.64,142.41,67.64s142.45-30.96,142.45-69.16v-55.94c0-3.06-.41-6.08-1.21-9.03Z"/><path class="d" d="M225,207.62c-96.96,0-175.57-38.16-175.57-85.24v8.71c0,47.08,78.6,85.24,175.57,85.24s175.57-38.16,175.57-85.24v-8.71c0,47.08-78.6,85.24-175.57,85.24Z"/><g><polygon class="e" points="235.77 311.03 78.26 275.18 78.26 245.54 235.77 281.4 235.77 311.03"/><polygon class="e" points="252.88 307.59 95.37 271.73 95.37 242.1 252.88 277.95 252.88 307.59"/><polygon class="b" points="215.39 298.98 98.64 272.33 98.64 257.59 215.39 284.24 215.39 298.98"/><polygon class="d" points="95.37 242.1 78.26 245.54 235.77 281.4 235.77 311.03 252.88 307.59 252.88 277.95 95.37 242.1"/></g><polygon class="c" points="192.89 452.22 114.88 434.59 114.88 302.01 192.89 319.64 192.89 452.22"/></g></g></svg>