<?xml version="1.0" encoding="UTF-8"?><svg id="a" xmlns="http://www.w3.org/2000/svg" viewBox="0 0 450 802.43"><defs><style>.b{fill:#6a5654;}.c,.d{fill:#26613e;}.d{stroke:#231815;stroke-miterlimit:10;stroke-width:10px;}.e{fill:#7c645c;}.f{fill:#296641;}.g{fill:#856c63;}.h{fill:#a1897d;}</style></defs><path class="d" d="M387.16,538.17h0c0-.71-.02-1.42-.05-2.12-.01-.24-.03-.47-.05-.71-.03-.47-.06-.94-.1-1.4-.03-.28-.06-.57-.09-.85-.05-.42-.09-.83-.15-1.24-.04-.3-.09-.61-.14-.91-.06-.39-.12-.78-.2-1.17-.06-.32-.12-.63-.19-.95-.08-.37-.16-.75-.24-1.12-.08-.32-.16-.65-.24-.97-.09-.36-.19-.72-.29-1.07-.09-.33-.19-.66-.29-.99-.1-.35-.21-.69-.33-1.04-.11-.34-.22-.67-.34-1.01-.12-.33-.24-.66-.36-.99-.13-.34-.26-.69-.39-1.03-.13-.32-.26-.63-.39-.94-.15-.36-.3-.71-.46-1.06-.13-.29-.27-.58-.4-.87-.17-.37-.35-.75-.53-1.12-.12-.24-.25-.49-.37-.73-.21-.41-.42-.83-.64-1.24-.04-.08-.09-.16-.13-.24-.94-1.71-1.98-3.39-3.11-5.06-.06-.09-.12-.19-.19-.28-.33-.48-.68-.96-1.02-1.43-.1-.14-.2-.28-.3-.42-.34-.46-.69-.92-1.05-1.37-.12-.15-.23-.31-.36-.46-.36-.45-.72-.9-1.1-1.35-.12-.15-.25-.3-.38-.45-.38-.45-.77-.9-1.16-1.35-.12-.14-.25-.28-.37-.42-.41-.46-.82-.91-1.25-1.36-.12-.12-.23-.25-.35-.37-.44-.47-.89-.93-1.35-1.39-.1-.1-.19-.19-.29-.29-.49-.49-.98-.97-1.48-1.45-.06-.06-.12-.12-.18-.17-1.02-.96-2.06-1.92-3.14-2.86-.03-.7-.19-1.49-.57-2.4,0,0,9.91-3.39,1.8-11.25,0,0,19.82-6.19,11.12-11.12,0,0,14.13-3.43-3.18-13.8,0,0,26.42-6.61,2.59-17.72,0,0,11.29-8.11-6.52-19.31,0,0,6.52-8.11-6.19-13.46,0,0-4.35-3.43-2.34-6.86,0,0,1.84-1.84,3.93-3.68s-.13-4.77-4.22-5.48c-4.1-.71,5.39-10.99,5.39-10.99,0,0,5.48-5.35-2.47-8.99,0,0-2.22-1.38-8.78-1.42,0,0-4.97,0-1.63-5.31,3.34-5.31,6.79-14.9-6.06-22.68,0,0-1.13-.75,1.13-3.89,2.26-3.14,5.14-9.84-6.58-18.31,0,0,11.54-11.6-4.7-17.43,0,0,3.93-10.68-6.86-13.77,0,0,6.48-13-8.32-20.27,0,0-3.26-1.63-3.39-5.89-.13-4.26-1.38-10.41-10.41-15.05,0,0,3.64-8.15-5.64-11.66,0,0,4.14-13.04-11.54-18.56,0,0,2.93-6.06-4.01-7.32,0,0,8.44-16.3-9.78-19.31,0,0,6.35-5.85-2.34-9.7,0,0,4.68-11.87-6.86-13.38,0,0,8.82-19.65-14.88-20.78,0,0,18.81-13.54-7.9-22.95,0,0,3.55-17.39-15.51-18.9,0,0-1.42-20.57-20.23-10.53,0,0-15.3-9.11-15.38,6.77,0,0-10.45-7.86-10.45,6.69v9.2s-13.38-3.51-11.12,13.8l.75,5.6s-16.89,5.27-12.46,17.72c0,0,.84,2.76,3.01,5.43,0,0-19.65,11.79-7.52,19.15,0,0-12.21,8.7-2.93,19.15,0,0-10.62,2.68-5.27,15.3,0,0-10.79,.84-5.35,11.79,0,0-15.05,.92-2.26,12.29,0,0,3.68,2.26-1.92,5.69-5.6,3.43-17.14,10.37-5.1,23.83,0,0-14.46-.5-10.53,9.2,0,0-9.53,3.18-2.09,15.38,0,0-8.36,3.93-10.2,21.15,0,0,.25,2.68-4.58,4.93-4.83,2.26-9.22,7.65-1,16.68,0,0-18.81,9.53-3.64,18.69,0,0-15.55,7.59-5.39,20.19,0,0,1.69,1.51-.63,3.2s-13.54,9.41-.82,23.95c0,0-24.92,4.89-5.97,24.08,0,0-9.27,5.83,.01,12.42,0,0,3.01,2.32-2.01,7.4-5.02,5.08-5.08,6.77-4.26,13.04,0,0-13.48,8.53-4.77,20.13,0,0-12.54,7.02-12.29,12.16,.25,5.14,10.28,6.4,10.28,6.4,0,0-5.91,6.16,0,12.72-.35,.45-.7,.9-1.03,1.35-.1,.14-.2,.28-.3,.42-.35,.48-.69,.95-1.02,1.43-.06,.09-.12,.19-.19,.28-1.13,1.66-2.17,3.35-3.11,5.06-.04,.08-.09,.16-.13,.24-.22,.41-.43,.82-.64,1.24-.12,.24-.25,.48-.37,.73-.18,.37-.36,.75-.53,1.12-.13,.29-.27,.58-.4,.87-.16,.35-.31,.71-.46,1.06-.13,.31-.26,.63-.39,.94-.14,.34-.26,.69-.39,1.03-.12,.33-.25,.66-.36,.99-.12,.34-.23,.67-.34,1.01-.11,.34-.22,.69-.33,1.04-.1,.33-.2,.66-.29,.99-.1,.36-.19,.72-.29,1.07-.08,.32-.16,.65-.24,.97-.09,.37-.17,.74-.24,1.12-.06,.31-.13,.63-.19,.95-.07,.39-.13,.78-.2,1.17-.05,.3-.1,.61-.14,.91-.06,.41-.1,.83-.15,1.24-.03,.28-.07,.57-.09,.85-.04,.47-.07,.93-.1,1.4-.01,.24-.04,.47-.05,.71-.03,.71-.05,1.41-.05,2.12h0c0,.2-.02,1.21-.02,2.93,0,9.33,.52,39.75,7.68,78.93,8.59,47.04,14.36,60.3,21.42,77.26,.31,.74,.62,1.49,.94,2.25l.08,.2c.32,.78,.65,1.58,.98,2.38l.03,.06c.37,.91,.78,1.82,1.21,2.73,.12,.26,.26,.52,.39,.79,.34,.68,.69,1.37,1.07,2.05,.13,.25,.27,.49,.4,.74,.5,.88,1.02,1.76,1.57,2.63,.11,.17,.23,.34,.34,.51,.46,.71,.94,1.42,1.44,2.12,.21,.29,.41,.58,.63,.87,.46,.63,.94,1.26,1.43,1.89,.19,.25,.38,.49,.58,.74,.66,.81,1.34,1.62,2.04,2.43,.24,.27,.49,.54,.74,.81,.51,.56,1.03,1.12,1.56,1.68,.31,.32,.61,.64,.93,.96,.56,.57,1.14,1.13,1.72,1.69,.26,.25,.51,.5,.77,.74,.79,.74,1.61,1.47,2.44,2.2,.37,.32,.74,.64,1.12,.95,.55,.46,1.11,.93,1.67,1.38,.4,.33,.81,.65,1.22,.97,.7,.55,1.41,1.09,2.13,1.62,.51,.38,1.03,.76,1.55,1.13,.55,.4,1.1,.79,1.67,1.19v-.02c11.54,7.97,25.86,14.7,42.36,19.55v.02c.66,.19,1.32,.37,1.97,.55,.31,.09,.62,.18,.94,.27,1.49,.41,2.99,.8,4.51,1.18,.35,.09,.71,.17,1.07,.26,1.33,.32,2.67,.64,4.03,.94,.3,.07,.59,.13,.89,.2,1.57,.34,3.15,.66,4.75,.96,.39,.07,.77,.14,1.16,.22,1.42,.26,2.86,.52,4.31,.75,.26,.04,.52,.09,.78,.13,1.64,.26,3.31,.5,4.98,.73,.41,.06,.82,.11,1.23,.16,1.54,.2,3.09,.39,4.65,.56,.2,.02,.4,.05,.6,.07,1.72,.18,3.46,.34,5.21,.48,.43,.03,.85,.07,1.28,.1,1.68,.13,3.37,.24,5.07,.33,.12,0,.23,.01,.34,.02,1.8,.09,3.61,.16,5.44,.21,.44,.01,.88,.02,1.33,.03,1.84,.04,3.7,.07,5.57,.07s3.72-.03,5.57-.07c.44-.01,.88-.02,1.33-.03,1.82-.05,3.64-.12,5.44-.21,.12,0,.23-.01,.34-.02,1.7-.09,3.39-.21,5.07-.33,.43-.03,.86-.06,1.28-.1,1.75-.14,3.49-.3,5.21-.48,.2-.02,.4-.05,.6-.07,1.56-.17,3.12-.36,4.66-.56,.41-.05,.82-.11,1.23-.16,1.67-.23,3.34-.47,4.98-.73,.26-.04,.52-.09,.78-.13,1.45-.24,2.89-.49,4.31-.75,.39-.07,.77-.14,1.16-.21,1.6-.31,3.18-.63,4.75-.96,.3-.06,.59-.13,.89-.2,1.35-.3,2.7-.61,4.03-.94,.36-.09,.71-.17,1.07-.26,1.52-.38,3.02-.77,4.51-1.18,.32-.09,.63-.18,.94-.27,.65-.18,1.31-.36,1.96-.55v-.02c16.51-4.85,30.83-11.58,42.38-19.55v.02c.56-.39,1.11-.79,1.66-1.19,.52-.37,1.03-.75,1.54-1.12,.72-.54,1.44-1.08,2.14-1.63,.41-.32,.81-.65,1.22-.97,.57-.46,1.12-.92,1.67-1.38,.37-.32,.75-.63,1.12-.95,.83-.73,1.65-1.46,2.44-2.2,.26-.25,.51-.5,.77-.74,.59-.56,1.16-1.13,1.72-1.69,.31-.32,.62-.64,.93-.96,.53-.56,1.05-1.12,1.56-1.68,.25-.27,.5-.54,.74-.81,.7-.8,1.38-1.61,2.04-2.43,.2-.25,.38-.49,.58-.74,.49-.62,.97-1.25,1.43-1.88,.21-.29,.42-.58,.63-.87,.5-.7,.97-1.41,1.44-2.12,.11-.17,.23-.34,.34-.51,.55-.87,1.07-1.75,1.57-2.63,.14-.25,.27-.49,.4-.74,.37-.68,.73-1.36,1.07-2.04,.13-.26,.26-.53,.39-.79,.43-.9,.84-1.81,1.21-2.72v-.03c.35-.83,.69-1.65,1.02-2.46l.05-.12c.33-.79,.65-1.58,.98-2.35,1.07-2.56,2.11-5.05,3.13-7.57,.12-.29,.24-.58,.35-.88,.25-.61,.49-1.23,.74-1.85,.23-.6,.47-1.2,.7-1.81,.11-.3,.23-.59,.34-.89,.09-.24,.18-.47,.27-.71,.22-.6,.45-1.2,.67-1.81,.15-.4,.29-.8,.44-1.2,.19-.54,.39-1.09,.58-1.65,.15-.43,.3-.86,.45-1.3,.21-.61,.42-1.24,.63-1.88,.23-.7,.46-1.41,.69-2.14,.11-.35,.22-.7,.33-1.05,.12-.39,.24-.78,.36-1.18,.43-1.41,.87-2.89,1.31-4.43,.29-1,.57-2.03,.86-3.09,.06-.24,.13-.47,.19-.71,.29-1.09,.59-2.21,.89-3.37,.06-.24,.12-.48,.19-.73,.3-1.19,.61-2.41,.92-3.68,2.25-9.24,4.66-20.61,7.34-35.28,7.16-39.18,7.69-69.6,7.68-78.93,0-1.73-.02-2.73-.02-2.93Z"/><g><g><path class="g" d="M387.16,538.17c0-47.17-72.6-85.41-162.16-85.41s-162.16,38.24-162.16,85.41c0,1.29-.82,35.43,7.66,81.86,9.4,51.45,15.42,62.49,23.45,82.16,13.3,32.59,63.86,60.6,131.06,60.6s117.75-28.01,131.06-60.6c8.03-19.67,14.05-30.7,23.45-82.16,8.48-46.43,7.66-80.57,7.66-81.86Z"/><g><path class="e" d="M295.47,461.23c-21.31-5.42-45.22-8.47-70.47-8.47s-49.16,3.04-70.47,8.47c-11.62,17.37-18.54,39.14-18.54,62.78,0,1.55-.45,42.63,4.2,98.51,5.16,61.92,8.46,75.2,12.87,98.86,2.2,11.81,6.26,23.12,11.86,33.17,17.75,5.21,38.02,8.23,60.08,8.23s42.34-3.02,60.08-8.23c5.6-10.04,9.66-21.35,11.86-33.17,4.41-23.67,7.71-36.95,12.87-98.86,4.66-55.87,4.2-96.95,4.2-98.51,0-23.64-6.92-45.42-18.54-62.78Z"/><path class="e" d="M387.16,538.17c0-21.79-15.5-41.66-40.99-56.75,7.67,12.98,11.94,27.4,11.94,42.6,0,1.55,.68,42.63-6.29,98.51-7.72,61.92-12.66,75.2-19.25,98.86-1.29,4.63-3.01,9.18-5.12,13.61,13.85-9.56,23.73-20.87,28.6-32.81,8.03-19.67,14.05-30.7,23.45-82.16,8.48-46.43,7.66-80.57,7.66-81.86Z"/><path class="e" d="M98.18,622.53c-6.96-55.87-6.29-96.95-6.29-98.51,0-15.19,4.27-29.62,11.94-42.6-25.49,15.09-40.99,34.96-40.99,56.75,0,1.29-.82,35.43,7.66,81.86,9.4,51.45,15.42,62.49,23.45,82.16,4.87,11.94,14.75,23.25,28.6,32.81-2.11-4.43-3.83-8.98-5.12-13.61-6.59-23.67-11.53-36.95-19.25-98.86Z"/></g><g><path class="h" d="M225,745.86c-61.07,0-109.65-21.01-132.99-48.53-.04-.05-.09-.1-.13-.16,.68,1.63,1.37,3.29,2.07,5.02,13.3,32.59,63.86,60.6,131.06,60.6s117.75-28.01,131.06-60.6c.71-1.73,1.39-3.39,2.07-5.02-.04,.05-.09,.1-.13,.16-23.34,27.52-71.93,48.53-132.99,48.53Z"/><path class="h" d="M225,675.91c-79.31,0-139.39-32.36-156.93-70.59,.71,4.69,1.52,9.55,2.43,14.55,.57,3.12,1.13,6.09,1.67,8.92,21.59,34.81,78.85,62.97,152.83,62.97s131.23-28.16,152.83-62.97c.55-2.83,1.1-5.8,1.67-8.92,.91-5,1.72-9.86,2.43-14.55-17.54,38.23-77.62,70.59-156.93,70.59Z"/><path class="h" d="M225,726.48c-73.98,0-129.65-30.84-144.29-66.72-1.43-3.5-2.8-6.76-4.14-10,4,17.4,7.48,27.76,11.09,36.93,21.23,30.23,72.18,54.16,137.35,54.16s116.12-23.93,137.35-54.16c3.61-9.17,7.09-19.54,11.09-36.93-1.34,3.24-2.71,6.49-4.14,10-14.64,35.88-70.31,66.72-144.29,66.72Z"/></g></g><ellipse class="b" cx="225" cy="533.2" rx="148.44" ry="70.16"/><g><path class="f" d="M208.75,91.74s-15.3-9.11-15.38,6.77c0,0-10.45-7.86-10.45,6.69v9.2s-13.38-3.51-11.12,13.8l.75,5.6s-16.89,5.27-12.46,17.72c0,0,.84,2.76,3.01,5.43,0,0-19.65,11.79-7.52,19.15,0,0-12.21,8.7-2.93,19.15,0,0-10.62,2.68-5.27,15.3,0,0-10.79,.84-5.35,11.79,0,0-15.05,.92-2.26,12.29,0,0,3.68,2.26-1.92,5.69-5.6,3.43-17.14,10.37-5.1,23.83,0,0-14.46-.5-10.53,9.2,0,0-9.53,3.18-2.09,15.38,0,0-8.36,3.93-10.2,21.15,0,0,.25,2.68-4.58,4.93s-9.22,7.65-1,16.68c0,0-18.81,9.53-3.64,18.69,0,0-15.55,7.59-5.39,20.19,0,0,1.69,1.5-.63,3.2s-13.54,9.41-.82,23.95c0,0-24.92,4.89-5.97,24.08,0,0-9.27,5.83,.01,12.42,0,0,3.01,2.32-2.01,7.4s-5.08,6.77-4.26,13.04c0,0-13.48,8.53-4.77,20.13,0,0-12.54,7.02-12.29,12.16,.25,5.14,10.28,6.4,10.28,6.4,0,0-5.96,6.21,.06,12.79,0,0-4.26,10.66,7.9,10.85,0,0-7.9,14.67,12.79,12.42,0,0-4.7,16.68,18,14.92,0,0-6.33,23.14,12.92,15.55,0,0-6.9,18.75,14.86,11.73,0,0,.13,17.31,31.6,9.28,0,0,.56,11.16,16.62,7.27,0,0,8.78,13.04,23.58-.44,0,0,2.7-2.57,6.27,.25s10.91,7.27,23.33,1.25c0,0,2.13-1.5,3.89,1.32s7.4,6.71,15.55,5.27c8.15-1.44,12.29-10.79,12.29-10.79,0,0,6.9,2.32,8.97-3.26,0,0,13.73,12.85,30.41-9.59,0,0,19,1.07,22.01-17.87,0,0,9.91,1,7.78-11.16,0,0,3.18-.92,.59-3.47,0,0,21.7,1.96,3.64-12.29,0,0,4.47-.04,1.84-4.64,0,0,9.16,.38,4.89-7.44,0,0,10.81-.38,5.29-16.43,0,0,5.58-1.5,3.2-7.15,0,0,9.91-3.39,1.8-11.25,0,0,19.82-6.19,11.12-11.12,0,0,14.13-3.43-3.18-13.8,0,0,26.42-6.61,2.59-17.72,0,0,11.29-8.11-6.52-19.31,0,0,6.52-8.11-6.19-13.46,0,0-4.35-3.43-2.34-6.86,0,0,1.84-1.84,3.93-3.68s-.13-4.77-4.22-5.48,5.39-10.99,5.39-10.99c0,0,5.48-5.35-2.47-8.99,0,0-2.22-1.38-8.78-1.42,0,0-4.97,0-1.63-5.31,3.34-5.31,6.79-14.9-6.06-22.68,0,0-1.13-.75,1.13-3.89s5.14-9.84-6.58-18.31c0,0,11.54-11.6-4.7-17.43,0,0,3.93-10.68-6.86-13.77,0,0,6.48-13-8.32-20.27,0,0-3.26-1.63-3.39-5.89s-1.38-10.41-10.41-15.05c0,0,3.64-8.15-5.64-11.66,0,0,4.14-13.04-11.54-18.56,0,0,2.93-6.06-4.01-7.32,0,0,8.44-16.3-9.78-19.31,0,0,6.35-5.85-2.34-9.7,0,0,4.68-11.87-6.86-13.38,0,0,8.82-19.65-14.88-20.78,0,0,18.81-13.54-7.9-22.95,0,0,3.55-17.39-15.51-18.9,0,0-1.42-20.57-20.23-10.53Z"/><path class="c" d="M347.91,527.17s1.15-.01,1.94-.62c-3.91-.09-6.92-1.55-6.92-1.55,2.01,13.54-8.78,11.04-8.78,11.04-7.02,24.58-30.85,10.28-30.85,10.28-1.51,20.82-18.48,13.04-18.48,13.04,1.17,15.89-16.39,11.71-16.39,11.71-6.69,8.7-23.74-.84-23.74-.84-17.06,8.7-31.77,0-31.77,0-22.24,8.36-16.89-7.02-16.89-7.02-20.4,11.04-31.44-7.19-31.44-7.19-22.57,13.21-24.75-7.19-24.75-7.19-18.39,3.34-15.55-9.2-15.55-9.2-15.89-.33-5.85-15.72-5.85-15.72-21.74,6.86-19.56-8.03-19.56-8.03-8.9,4.18-11.29-3.05-11.29-3.05-1.8,2.76-3.64,4.42-5.39,5.38-1.36,3.63-3.26,12.81,13.42,10.99,0,0-4.7,16.68,18,14.92,0,0-6.33,23.14,12.92,15.55,0,0-6.9,18.75,14.86,11.73,0,0,.13,17.31,31.6,9.28,0,0,.56,11.16,16.62,7.27,0,0,8.78,13.04,23.58-.44,0,0,2.7-2.57,6.27,.25s10.91,7.27,23.33,1.25c0,0,2.13-1.51,3.89,1.32s7.4,6.71,15.55,5.27c8.15-1.44,12.29-10.79,12.29-10.79,0,0,6.9,2.32,8.97-3.26,0,0,13.73,12.85,30.41-9.59,0,0,19,1.07,22.01-17.87,0,0,9.91,1,7.78-11.16,0,0,3.18-.92,.59-3.47,0,0,21.7,1.96,3.64-12.29Z"/></g></g></svg>